<?xml version="1.0" encoding="UTF-8" standalone="no"?>
<!DOCTYPE svg PUBLIC "-//W3C//DTD SVG 1.1//EN"
 "http://www.w3.org/Graphics/SVG/1.1/DTD/svg11.dtd">
<!-- Generated by graphviz version 2.34.0 (20141125.1709)
 -->
<!-- Title: gbs Pages: 1 -->
<svg width="395pt" height="1484pt"
 viewBox="0.00 0.00 395.00 1484.00" xmlns="http://www.w3.org/2000/svg" xmlns:xlink="http://www.w3.org/1999/xlink">
<g id="graph0" class="graph" transform="scale(1 1) rotate(0) translate(4 1480)">
<title>gbs</title>
<polygon fill="white" stroke="white" points="-4,4 -4,-1480 391,-1480 391,4 -4,4"/>
<!-- FastqToTagCountPlugin -->
<g id="node1" class="node"><title>FastqToTagCountPlugin</title>
<polygon fill="#e5e5e5" stroke="#e5e5e5" points="307,-1404 157,-1404 157,-1368 307,-1368 307,-1404"/>
<text text-anchor="middle" x="232" y="-1382.3" font-family="Times,serif" font-size="14.00">FastqToTagCountPlugin</text>
</g>
<!-- TagCounts/1 -->
<g id="node13" class="node"><title>TagCounts/1</title>
<ellipse fill="none" stroke="black" cx="114" cy="-1314" rx="55.3436" ry="18"/>
<text text-anchor="middle" x="114" y="-1310.3" font-family="Times,serif" font-size="14.00">TagCounts/1</text>
</g>
<!-- FastqToTagCountPlugin&#45;&gt;TagCounts/1 -->
<g id="edge3" class="edge"><title>FastqToTagCountPlugin&#45;&gt;TagCounts/1</title>
<path fill="none" stroke="black" d="M203.134,-1367.88C186.517,-1358.02 165.54,-1345.57 148.111,-1335.24"/>
<polygon fill="black" stroke="black" points="149.749,-1332.14 139.363,-1330.05 146.177,-1338.16 149.749,-1332.14"/>
</g>
<!-- TagCounts/n -->
<g id="node14" class="node"><title>TagCounts/n</title>
<ellipse fill="none" stroke="black" cx="244" cy="-1314" rx="55.3436" ry="18"/>
<text text-anchor="middle" x="244" y="-1310.3" font-family="Times,serif" font-size="14.00">TagCounts/n</text>
</g>
<!-- FastqToTagCountPlugin&#45;&gt;TagCounts/n -->
<g id="edge4" class="edge"><title>FastqToTagCountPlugin&#45;&gt;TagCounts/n</title>
<path fill="none" stroke="black" d="M234.966,-1367.7C236.289,-1359.98 237.878,-1350.71 239.352,-1342.11"/>
<polygon fill="black" stroke="black" points="242.828,-1342.55 241.068,-1332.1 235.928,-1341.37 242.828,-1342.55"/>
</g>
<!-- MergeMultipleTagCountPlugin -->
<g id="node2" class="node"><title>MergeMultipleTagCountPlugin</title>
<polygon fill="#e5e5e5" stroke="#e5e5e5" points="308.25,-1260 119.75,-1260 119.75,-1224 308.25,-1224 308.25,-1260"/>
<text text-anchor="middle" x="214" y="-1238.3" font-family="Times,serif" font-size="14.00">MergeMultipleTagCountPlugin</text>
</g>
<!-- TagCount -->
<g id="node15" class="node"><title>TagCount</title>
<ellipse fill="none" stroke="black" cx="219" cy="-1170" rx="46.2191" ry="18"/>
<text text-anchor="middle" x="219" y="-1166.3" font-family="Times,serif" font-size="14.00">TagCount</text>
</g>
<!-- MergeMultipleTagCountPlugin&#45;&gt;TagCount -->
<g id="edge8" class="edge"><title>MergeMultipleTagCountPlugin&#45;&gt;TagCount</title>
<path fill="none" stroke="black" d="M215.236,-1223.7C215.787,-1215.98 216.449,-1206.71 217.063,-1198.11"/>
<polygon fill="black" stroke="black" points="220.557,-1198.33 217.778,-1188.1 213.575,-1197.83 220.557,-1198.33"/>
</g>
<!-- TagCountToFastqPlugin -->
<g id="node3" class="node"><title>TagCountToFastqPlugin</title>
<polygon fill="#e5e5e5" stroke="#e5e5e5" points="304,-1116 154,-1116 154,-1080 304,-1080 304,-1116"/>
<text text-anchor="middle" x="229" y="-1094.3" font-family="Times,serif" font-size="14.00">TagCountToFastqPlugin</text>
</g>
<!-- TagCount.fastq -->
<g id="node16" class="node"><title>TagCount.fastq</title>
<ellipse fill="none" stroke="black" cx="243" cy="-1026" rx="65.4659" ry="18"/>
<text text-anchor="middle" x="243" y="-1022.3" font-family="Times,serif" font-size="14.00">TagCount.fastq</text>
</g>
<!-- TagCountToFastqPlugin&#45;&gt;TagCount.fastq -->
<g id="edge10" class="edge"><title>TagCountToFastqPlugin&#45;&gt;TagCount.fastq</title>
<path fill="none" stroke="black" d="M232.461,-1079.7C234.003,-1071.98 235.858,-1062.71 237.578,-1054.11"/>
<polygon fill="black" stroke="black" points="241.05,-1054.6 239.579,-1044.1 234.186,-1053.22 241.05,-1054.6"/>
</g>
<!-- SAMConverterPlugin -->
<g id="node4" class="node"><title>SAMConverterPlugin</title>
<polygon fill="#e5e5e5" stroke="#e5e5e5" points="261,-828 125,-828 125,-792 261,-792 261,-828"/>
<text text-anchor="middle" x="193" y="-806.3" font-family="Times,serif" font-size="14.00">SAMConverterPlugin</text>
</g>
<!-- Pairs.topm -->
<g id="node19" class="node"><title>Pairs.topm</title>
<ellipse fill="none" stroke="black" cx="193" cy="-738" rx="49.0941" ry="18"/>
<text text-anchor="middle" x="193" y="-734.3" font-family="Times,serif" font-size="14.00">Pairs.topm</text>
</g>
<!-- SAMConverterPlugin&#45;&gt;Pairs.topm -->
<g id="edge15" class="edge"><title>SAMConverterPlugin&#45;&gt;Pairs.topm</title>
<path fill="none" stroke="black" d="M193,-791.697C193,-783.983 193,-774.712 193,-766.112"/>
<polygon fill="black" stroke="black" points="196.5,-766.104 193,-756.104 189.5,-766.104 196.5,-766.104"/>
</g>
<!-- SeqToTBTHDF5Plugin -->
<g id="node5" class="node"><title>SeqToTBTHDF5Plugin</title>
<polygon fill="#e5e5e5" stroke="#e5e5e5" points="333,-684 187,-684 187,-648 333,-648 333,-684"/>
<text text-anchor="middle" x="260" y="-662.3" font-family="Times,serif" font-size="14.00">SeqToTBTHDF5Plugin</text>
</g>
<!-- TagsByTaxa.h5 -->
<g id="node20" class="node"><title>TagsByTaxa.h5</title>
<ellipse fill="none" stroke="black" cx="260" cy="-594" rx="66.4165" ry="18"/>
<text text-anchor="middle" x="260" y="-590.3" font-family="Times,serif" font-size="14.00">TagsByTaxa.h5</text>
</g>
<!-- SeqToTBTHDF5Plugin&#45;&gt;TagsByTaxa.h5 -->
<g id="edge18" class="edge"><title>SeqToTBTHDF5Plugin&#45;&gt;TagsByTaxa.h5</title>
<path fill="none" stroke="black" d="M260,-647.697C260,-639.983 260,-630.712 260,-622.112"/>
<polygon fill="black" stroke="black" points="263.5,-622.104 260,-612.104 256.5,-622.104 263.5,-622.104"/>
</g>
<!-- ModifyTBTHDF5Plugin -->
<g id="node6" class="node"><title>ModifyTBTHDF5Plugin</title>
<polygon fill="#e5e5e5" stroke="#e5e5e5" points="336,-540 184,-540 184,-504 336,-504 336,-540"/>
<text text-anchor="middle" x="260" y="-518.3" font-family="Times,serif" font-size="14.00">ModifyTBTHDF5Plugin</text>
</g>
<!-- TagsByTaxa.pivot.h5 -->
<g id="node21" class="node"><title>TagsByTaxa.pivot.h5</title>
<ellipse fill="none" stroke="black" cx="260" cy="-450" rx="87.1385" ry="18"/>
<text text-anchor="middle" x="260" y="-446.3" font-family="Times,serif" font-size="14.00">TagsByTaxa.pivot.h5</text>
</g>
<!-- ModifyTBTHDF5Plugin&#45;&gt;TagsByTaxa.pivot.h5 -->
<g id="edge20" class="edge"><title>ModifyTBTHDF5Plugin&#45;&gt;TagsByTaxa.pivot.h5</title>
<path fill="none" stroke="black" d="M260,-503.697C260,-495.983 260,-486.712 260,-478.112"/>
<polygon fill="black" stroke="black" points="263.5,-478.104 260,-468.104 256.5,-478.104 263.5,-478.104"/>
</g>
<!-- DiscoverySNPCallerPlugin -->
<g id="node7" class="node"><title>DiscoverySNPCallerPlugin</title>
<polygon fill="#e5e5e5" stroke="#e5e5e5" points="284.25,-396 119.75,-396 119.75,-360 284.25,-360 284.25,-396"/>
<text text-anchor="middle" x="202" y="-374.3" font-family="Times,serif" font-size="14.00">DiscoverySNPCallerPlugin</text>
</g>
<!-- Discovery.topm -->
<g id="node22" class="node"><title>Discovery.topm</title>
<ellipse fill="none" stroke="black" cx="202" cy="-306" rx="67.3907" ry="18"/>
<text text-anchor="middle" x="202" y="-302.3" font-family="Times,serif" font-size="14.00">Discovery.topm</text>
</g>
<!-- DiscoverySNPCallerPlugin&#45;&gt;Discovery.topm -->
<g id="edge23" class="edge"><title>DiscoverySNPCallerPlugin&#45;&gt;Discovery.topm</title>
<path fill="none" stroke="black" d="M202,-359.697C202,-351.983 202,-342.712 202,-334.112"/>
<polygon fill="black" stroke="black" points="205.5,-334.104 202,-324.104 198.5,-334.104 205.5,-334.104"/>
</g>
<!-- ProductionSNPCallerPlugin -->
<g id="node8" class="node"><title>ProductionSNPCallerPlugin</title>
<polygon fill="#e5e5e5" stroke="#e5e5e5" points="286.25,-252 117.75,-252 117.75,-216 286.25,-216 286.25,-252"/>
<text text-anchor="middle" x="202" y="-230.3" font-family="Times,serif" font-size="14.00">ProductionSNPCallerPlugin</text>
</g>
<!-- Genotypes.h5 -->
<g id="node23" class="node"><title>Genotypes.h5</title>
<ellipse fill="none" stroke="black" cx="202" cy="-162" rx="59.1941" ry="18"/>
<text text-anchor="middle" x="202" y="-158.3" font-family="Times,serif" font-size="14.00">Genotypes.h5</text>
</g>
<!-- ProductionSNPCallerPlugin&#45;&gt;Genotypes.h5 -->
<g id="edge27" class="edge"><title>ProductionSNPCallerPlugin&#45;&gt;Genotypes.h5</title>
<path fill="none" stroke="black" d="M202,-215.697C202,-207.983 202,-198.712 202,-190.112"/>
<polygon fill="black" stroke="black" points="205.5,-190.104 202,-180.104 198.5,-190.104 205.5,-190.104"/>
</g>
<!-- GenotypesToH5 -->
<g id="node9" class="node"><title>GenotypesToH5</title>
<polygon fill="#e5e5e5" stroke="#e5e5e5" points="255,-108 149,-108 149,-72 255,-72 255,-108"/>
<text text-anchor="middle" x="202" y="-86.3" font-family="Times,serif" font-size="14.00">GenotypesToH5</text>
</g>
<!-- HapMap.txt -->
<g id="node24" class="node"><title>HapMap.txt</title>
<ellipse fill="none" stroke="black" cx="202" cy="-18" rx="53.4184" ry="18"/>
<text text-anchor="middle" x="202" y="-14.3" font-family="Times,serif" font-size="14.00">HapMap.txt</text>
</g>
<!-- GenotypesToH5&#45;&gt;HapMap.txt -->
<g id="edge29" class="edge"><title>GenotypesToH5&#45;&gt;HapMap.txt</title>
<path fill="none" stroke="black" d="M202,-71.6966C202,-63.9827 202,-54.7125 202,-46.1124"/>
<polygon fill="black" stroke="black" points="205.5,-46.1043 202,-36.1043 198.5,-46.1044 205.5,-46.1043"/>
</g>
<!-- Align -->
<g id="node10" class="node"><title>Align</title>
<polygon fill="#cccccc" stroke="#cccccc" points="220,-972 166,-972 166,-936 220,-936 220,-972"/>
<text text-anchor="middle" x="193" y="-950.3" font-family="Times,serif" font-size="14.00">Align</text>
</g>
<!-- TagCount.sam -->
<g id="node18" class="node"><title>TagCount.sam</title>
<ellipse fill="none" stroke="black" cx="193" cy="-882" rx="63.0666" ry="18"/>
<text text-anchor="middle" x="193" y="-878.3" font-family="Times,serif" font-size="14.00">TagCount.sam</text>
</g>
<!-- Align&#45;&gt;TagCount.sam -->
<g id="edge13" class="edge"><title>Align&#45;&gt;TagCount.sam</title>
<path fill="none" stroke="black" d="M193,-935.697C193,-927.983 193,-918.712 193,-910.112"/>
<polygon fill="black" stroke="black" points="196.5,-910.104 193,-900.104 189.5,-910.104 196.5,-910.104"/>
</g>
<!-- FASTQ -->
<g id="node11" class="node"><title>FASTQ</title>
<ellipse fill="none" stroke="black" cx="115" cy="-1458" rx="38.0212" ry="18"/>
<text text-anchor="middle" x="115" y="-1454.3" font-family="Times,serif" font-size="14.00">FASTQ</text>
</g>
<!-- FASTQ&#45;&gt;FastqToTagCountPlugin -->
<g id="edge1" class="edge"><title>FASTQ&#45;&gt;FastqToTagCountPlugin</title>
<path fill="none" stroke="black" d="M137.837,-1443.34C154.026,-1433.65 176.109,-1420.44 194.82,-1409.24"/>
<polygon fill="black" stroke="black" points="196.635,-1412.24 203.42,-1404.1 193.041,-1406.23 196.635,-1412.24"/>
</g>
<!-- FASTQ&#45;&gt;ProductionSNPCallerPlugin -->
<g id="edge24" class="edge"><title>FASTQ&#45;&gt;ProductionSNPCallerPlugin</title>
<path fill="none" stroke="black" d="M92.5538,-1443.29C59.0867,-1420.93 0,-1373.21 0,-1315 0,-1315 0,-1315 0,-377 0,-313.379 67.8925,-275.799 124.957,-255.449"/>
<polygon fill="black" stroke="black" points="126.417,-258.648 134.737,-252.089 124.142,-252.028 126.417,-258.648"/>
</g>
<!-- KeyFile.txt -->
<g id="node12" class="node"><title>KeyFile.txt</title>
<ellipse fill="none" stroke="black" cx="337" cy="-1458" rx="50.5427" ry="18"/>
<text text-anchor="middle" x="337" y="-1454.3" font-family="Times,serif" font-size="14.00">KeyFile.txt</text>
</g>
<!-- KeyFile.txt&#45;&gt;FastqToTagCountPlugin -->
<g id="edge2" class="edge"><title>KeyFile.txt&#45;&gt;FastqToTagCountPlugin</title>
<path fill="none" stroke="black" d="M314.217,-1441.81C300.171,-1432.45 281.893,-1420.26 266.14,-1409.76"/>
<polygon fill="black" stroke="black" points="267.952,-1406.76 257.69,-1404.13 264.069,-1412.59 267.952,-1406.76"/>
</g>
<!-- KeyFile.txt&#45;&gt;SeqToTBTHDF5Plugin -->
<g id="edge16" class="edge"><title>KeyFile.txt&#45;&gt;SeqToTBTHDF5Plugin</title>
<path fill="none" stroke="black" d="M337,-1439.95C337,-1413.29 337,-1360.11 337,-1315 337,-1315 337,-1315 337,-809 337,-763.507 306.082,-718.651 283.429,-691.892"/>
<polygon fill="black" stroke="black" points="285.919,-689.422 276.708,-684.188 280.645,-694.024 285.919,-689.422"/>
</g>
<!-- KeyFile.txt&#45;&gt;ProductionSNPCallerPlugin -->
<g id="edge25" class="edge"><title>KeyFile.txt&#45;&gt;ProductionSNPCallerPlugin</title>
<path fill="none" stroke="black" d="M344.69,-1439.91C355.794,-1413.62 375,-1361.45 375,-1315 375,-1315 375,-1315 375,-377 375,-317.133 312.338,-277.893 262.439,-256.136"/>
<polygon fill="black" stroke="black" points="263.544,-252.804 252.97,-252.146 260.826,-259.255 263.544,-252.804"/>
</g>
<!-- TagCounts/1&#45;&gt;MergeMultipleTagCountPlugin -->
<g id="edge5" class="edge"><title>TagCounts/1&#45;&gt;MergeMultipleTagCountPlugin</title>
<path fill="none" stroke="black" d="M136.193,-1297.46C149.373,-1288.24 166.332,-1276.37 181.051,-1266.06"/>
<polygon fill="black" stroke="black" points="183.228,-1268.81 189.413,-1260.21 179.214,-1263.08 183.228,-1268.81"/>
</g>
<!-- TagCounts/1&#45;&gt;TagCounts/n -->
<g id="edge7" class="edge"><title>TagCounts/1&#45;&gt;TagCounts/n</title>
<path fill="none" stroke="black" stroke-dasharray="1,5" d="M169.605,-1314C175.902,-1314 182.198,-1314 188.495,-1314"/>
</g>
<!-- TagCounts/n&#45;&gt;MergeMultipleTagCountPlugin -->
<g id="edge6" class="edge"><title>TagCounts/n&#45;&gt;MergeMultipleTagCountPlugin</title>
<path fill="none" stroke="black" d="M236.738,-1296.05C233.325,-1288.09 229.176,-1278.41 225.361,-1269.51"/>
<polygon fill="black" stroke="black" points="228.56,-1268.09 221.404,-1260.28 222.126,-1270.85 228.56,-1268.09"/>
</g>
<!-- TagCount&#45;&gt;TagCountToFastqPlugin -->
<g id="edge9" class="edge"><title>TagCount&#45;&gt;TagCountToFastqPlugin</title>
<path fill="none" stroke="black" d="M221.472,-1151.7C222.574,-1143.98 223.898,-1134.71 225.127,-1126.11"/>
<polygon fill="black" stroke="black" points="228.607,-1126.5 226.557,-1116.1 221.677,-1125.51 228.607,-1126.5"/>
</g>
<!-- TagCount.fastq&#45;&gt;Align -->
<g id="edge12" class="edge"><title>TagCount.fastq&#45;&gt;Align</title>
<path fill="none" stroke="black" d="M230.896,-1008.05C225.027,-999.837 217.851,-989.791 211.329,-980.66"/>
<polygon fill="black" stroke="black" points="214,-978.378 205.339,-972.275 208.304,-982.447 214,-978.378"/>
</g>
<!-- Reference.fasta -->
<g id="node17" class="node"><title>Reference.fasta</title>
<ellipse fill="none" stroke="black" cx="94" cy="-1026" rx="65.4659" ry="18"/>
<text text-anchor="middle" x="94" y="-1022.3" font-family="Times,serif" font-size="14.00">Reference.fasta</text>
</g>
<!-- Reference.fasta&#45;&gt;Align -->
<g id="edge11" class="edge"><title>Reference.fasta&#45;&gt;Align</title>
<path fill="none" stroke="black" d="M116.961,-1008.76C129.828,-999.667 146.09,-988.168 160.271,-978.142"/>
<polygon fill="black" stroke="black" points="162.637,-980.755 168.782,-972.124 158.596,-975.039 162.637,-980.755"/>
</g>
<!-- TagCount.sam&#45;&gt;SAMConverterPlugin -->
<g id="edge14" class="edge"><title>TagCount.sam&#45;&gt;SAMConverterPlugin</title>
<path fill="none" stroke="black" d="M193,-863.697C193,-855.983 193,-846.712 193,-838.112"/>
<polygon fill="black" stroke="black" points="196.5,-838.104 193,-828.104 189.5,-838.104 196.5,-838.104"/>
</g>
<!-- Pairs.topm&#45;&gt;SeqToTBTHDF5Plugin -->
<g id="edge17" class="edge"><title>Pairs.topm&#45;&gt;SeqToTBTHDF5Plugin</title>
<path fill="none" stroke="black" d="M208.54,-720.765C216.836,-712.096 227.22,-701.248 236.483,-691.57"/>
<polygon fill="black" stroke="black" points="239.224,-693.768 243.61,-684.124 234.167,-688.928 239.224,-693.768"/>
</g>
<!-- Pairs.topm&#45;&gt;DiscoverySNPCallerPlugin -->
<g id="edge22" class="edge"><title>Pairs.topm&#45;&gt;DiscoverySNPCallerPlugin</title>
<path fill="none" stroke="black" d="M183.286,-720.137C169.261,-694.153 145,-642.362 145,-595 145,-595 145,-595 145,-521 145,-480.553 147.649,-468.994 164,-432 168.325,-422.214 174.636,-412.431 180.876,-403.982"/>
<polygon fill="black" stroke="black" points="183.676,-406.081 187.016,-396.027 178.135,-401.804 183.676,-406.081"/>
</g>
<!-- TagsByTaxa.h5&#45;&gt;ModifyTBTHDF5Plugin -->
<g id="edge19" class="edge"><title>TagsByTaxa.h5&#45;&gt;ModifyTBTHDF5Plugin</title>
<path fill="none" stroke="black" d="M260,-575.697C260,-567.983 260,-558.712 260,-550.112"/>
<polygon fill="black" stroke="black" points="263.5,-550.104 260,-540.104 256.5,-550.104 263.5,-550.104"/>
</g>
<!-- TagsByTaxa.pivot.h5&#45;&gt;DiscoverySNPCallerPlugin -->
<g id="edge21" class="edge"><title>TagsByTaxa.pivot.h5&#45;&gt;DiscoverySNPCallerPlugin</title>
<path fill="none" stroke="black" d="M245.96,-432.055C239.011,-423.668 230.483,-413.376 222.794,-404.096"/>
<polygon fill="black" stroke="black" points="225.389,-401.742 216.314,-396.275 219.999,-406.209 225.389,-401.742"/>
</g>
<!-- Discovery.topm&#45;&gt;ProductionSNPCallerPlugin -->
<g id="edge26" class="edge"><title>Discovery.topm&#45;&gt;ProductionSNPCallerPlugin</title>
<path fill="none" stroke="black" d="M202,-287.697C202,-279.983 202,-270.712 202,-262.112"/>
<polygon fill="black" stroke="black" points="205.5,-262.104 202,-252.104 198.5,-262.104 205.5,-262.104"/>
</g>
<!-- Genotypes.h5&#45;&gt;GenotypesToH5 -->
<g id="edge28" class="edge"><title>Genotypes.h5&#45;&gt;GenotypesToH5</title>
<path fill="none" stroke="black" d="M202,-143.697C202,-135.983 202,-126.712 202,-118.112"/>
<polygon fill="black" stroke="black" points="205.5,-118.104 202,-108.104 198.5,-118.104 205.5,-118.104"/>
</g>
</g>
</svg>
