<?xml version="1.0" encoding="UTF-8" standalone="no"?>
<!DOCTYPE svg PUBLIC "-//W3C//DTD SVG 1.1//EN"
 "http://www.w3.org/Graphics/SVG/1.1/DTD/svg11.dtd">
<!-- Generated by graphviz version 2.34.0 (20141125.1709)
 -->
<!-- Title: gbs Pages: 1 -->
<svg width="390pt" height="1196pt"
 viewBox="0.00 0.00 390.00 1196.00" xmlns="http://www.w3.org/2000/svg" xmlns:xlink="http://www.w3.org/1999/xlink">
<g id="graph0" class="graph" transform="scale(1 1) rotate(0) translate(4 1192)">
<title>gbs</title>
<polygon fill="white" stroke="white" points="-4,4 -4,-1192 386,-1192 386,4 -4,4"/>
<!-- FastqToTagCountPlugin -->
<g id="node1" class="node"><title>FastqToTagCountPlugin</title>
<polygon fill="#e5e5e5" stroke="#e5e5e5" points="262,-1116 112,-1116 112,-1080 262,-1080 262,-1116"/>
<text text-anchor="middle" x="187" y="-1094.3" font-family="Times,serif" font-size="14.00">FastqToTagCountPlugin</text>
</g>
<!-- TagCounts/1 -->
<g id="node11" class="node"><title>TagCounts/1</title>
<ellipse fill="none" stroke="black" cx="168" cy="-1026" rx="55.3436" ry="18"/>
<text text-anchor="middle" x="168" y="-1022.3" font-family="Times,serif" font-size="14.00">TagCounts/1</text>
</g>
<!-- FastqToTagCountPlugin&#45;&gt;TagCounts/1 -->
<g id="edge3" class="edge"><title>FastqToTagCountPlugin&#45;&gt;TagCounts/1</title>
<path fill="none" stroke="black" d="M182.303,-1079.7C180.187,-1071.9 177.638,-1062.51 175.282,-1053.83"/>
<polygon fill="black" stroke="black" points="178.64,-1052.84 172.643,-1044.1 171.884,-1054.67 178.64,-1052.84"/>
</g>
<!-- TagCounts/n -->
<g id="node12" class="node"><title>TagCounts/n</title>
<ellipse fill="none" stroke="black" cx="298" cy="-1026" rx="55.3436" ry="18"/>
<text text-anchor="middle" x="298" y="-1022.3" font-family="Times,serif" font-size="14.00">TagCounts/n</text>
</g>
<!-- FastqToTagCountPlugin&#45;&gt;TagCounts/n -->
<g id="edge4" class="edge"><title>FastqToTagCountPlugin&#45;&gt;TagCounts/n</title>
<path fill="none" stroke="black" d="M214.154,-1079.88C229.533,-1070.18 248.883,-1057.97 265.118,-1047.74"/>
<polygon fill="black" stroke="black" points="267.18,-1050.57 273.771,-1042.28 263.446,-1044.65 267.18,-1050.57"/>
</g>
<!-- MergeMultipleTagCountPlugin -->
<g id="node2" class="node"><title>MergeMultipleTagCountPlugin</title>
<polygon fill="#e5e5e5" stroke="#e5e5e5" points="309.25,-972 120.75,-972 120.75,-936 309.25,-936 309.25,-972"/>
<text text-anchor="middle" x="215" y="-950.3" font-family="Times,serif" font-size="14.00">MergeMultipleTagCountPlugin</text>
</g>
<!-- TagCount -->
<g id="node13" class="node"><title>TagCount</title>
<ellipse fill="none" stroke="black" cx="215" cy="-882" rx="46.2191" ry="18"/>
<text text-anchor="middle" x="215" y="-878.3" font-family="Times,serif" font-size="14.00">TagCount</text>
</g>
<!-- MergeMultipleTagCountPlugin&#45;&gt;TagCount -->
<g id="edge8" class="edge"><title>MergeMultipleTagCountPlugin&#45;&gt;TagCount</title>
<path fill="none" stroke="black" d="M215,-935.697C215,-927.983 215,-918.712 215,-910.112"/>
<polygon fill="black" stroke="black" points="218.5,-910.104 215,-900.104 211.5,-910.104 218.5,-910.104"/>
</g>
<!-- UTagCountToTagPairPlugin -->
<g id="node3" class="node"><title>UTagCountToTagPairPlugin</title>
<polygon fill="#e5e5e5" stroke="#e5e5e5" points="301.25,-828 128.75,-828 128.75,-792 301.25,-792 301.25,-828"/>
<text text-anchor="middle" x="215" y="-806.3" font-family="Times,serif" font-size="14.00">UTagCountToTagPairPlugin</text>
</g>
<!-- TagPairs -->
<g id="node14" class="node"><title>TagPairs</title>
<ellipse fill="none" stroke="black" cx="215" cy="-738" rx="42.3701" ry="18"/>
<text text-anchor="middle" x="215" y="-734.3" font-family="Times,serif" font-size="14.00">TagPairs</text>
</g>
<!-- UTagCountToTagPairPlugin&#45;&gt;TagPairs -->
<g id="edge10" class="edge"><title>UTagCountToTagPairPlugin&#45;&gt;TagPairs</title>
<path fill="none" stroke="black" d="M215,-791.697C215,-783.983 215,-774.712 215,-766.112"/>
<polygon fill="black" stroke="black" points="218.5,-766.104 215,-756.104 211.5,-766.104 218.5,-766.104"/>
</g>
<!-- UTagPairToTOPMPlugin -->
<g id="node4" class="node"><title>UTagPairToTOPMPlugin</title>
<polygon fill="#e5e5e5" stroke="#e5e5e5" points="294,-684 136,-684 136,-648 294,-648 294,-684"/>
<text text-anchor="middle" x="215" y="-662.3" font-family="Times,serif" font-size="14.00">UTagPairToTOPMPlugin</text>
</g>
<!-- Pairs.topm -->
<g id="node15" class="node"><title>Pairs.topm</title>
<ellipse fill="none" stroke="black" cx="215" cy="-594" rx="49.0941" ry="18"/>
<text text-anchor="middle" x="215" y="-590.3" font-family="Times,serif" font-size="14.00">Pairs.topm</text>
</g>
<!-- UTagPairToTOPMPlugin&#45;&gt;Pairs.topm -->
<g id="edge12" class="edge"><title>UTagPairToTOPMPlugin&#45;&gt;Pairs.topm</title>
<path fill="none" stroke="black" d="M215,-647.697C215,-639.983 215,-630.712 215,-622.112"/>
<polygon fill="black" stroke="black" points="218.5,-622.104 215,-612.104 211.5,-622.104 218.5,-622.104"/>
</g>
<!-- SeqToTBTHDF5Plugin -->
<g id="node5" class="node"><title>SeqToTBTHDF5Plugin</title>
<polygon fill="#e5e5e5" stroke="#e5e5e5" points="176,-540 30,-540 30,-504 176,-504 176,-540"/>
<text text-anchor="middle" x="103" y="-518.3" font-family="Times,serif" font-size="14.00">SeqToTBTHDF5Plugin</text>
</g>
<!-- TagsByTaxa.h5 -->
<g id="node16" class="node"><title>TagsByTaxa.h5</title>
<ellipse fill="none" stroke="black" cx="106" cy="-450" rx="66.4165" ry="18"/>
<text text-anchor="middle" x="106" y="-446.3" font-family="Times,serif" font-size="14.00">TagsByTaxa.h5</text>
</g>
<!-- SeqToTBTHDF5Plugin&#45;&gt;TagsByTaxa.h5 -->
<g id="edge16" class="edge"><title>SeqToTBTHDF5Plugin&#45;&gt;TagsByTaxa.h5</title>
<path fill="none" stroke="black" d="M103.742,-503.697C104.072,-495.983 104.469,-486.712 104.838,-478.112"/>
<polygon fill="black" stroke="black" points="108.335,-478.245 105.267,-468.104 101.342,-477.945 108.335,-478.245"/>
</g>
<!-- ModifyTBTHDF5Plugin -->
<g id="node6" class="node"><title>ModifyTBTHDF5Plugin</title>
<polygon fill="#e5e5e5" stroke="#e5e5e5" points="189,-396 37,-396 37,-360 189,-360 189,-396"/>
<text text-anchor="middle" x="113" y="-374.3" font-family="Times,serif" font-size="14.00">ModifyTBTHDF5Plugin</text>
</g>
<!-- TagsByTaxa.pivot.h5 -->
<g id="node17" class="node"><title>TagsByTaxa.pivot.h5</title>
<ellipse fill="none" stroke="black" cx="115" cy="-306" rx="87.1385" ry="18"/>
<text text-anchor="middle" x="115" y="-302.3" font-family="Times,serif" font-size="14.00">TagsByTaxa.pivot.h5</text>
</g>
<!-- ModifyTBTHDF5Plugin&#45;&gt;TagsByTaxa.pivot.h5 -->
<g id="edge18" class="edge"><title>ModifyTBTHDF5Plugin&#45;&gt;TagsByTaxa.pivot.h5</title>
<path fill="none" stroke="black" d="M113.494,-359.697C113.715,-351.983 113.98,-342.712 114.225,-334.112"/>
<polygon fill="black" stroke="black" points="117.724,-334.2 114.511,-324.104 110.727,-334 117.724,-334.2"/>
</g>
<!-- DiscoverySNPCallerPlugin -->
<g id="node7" class="node"><title>DiscoverySNPCallerPlugin</title>
<polygon fill="#e5e5e5" stroke="#e5e5e5" points="254.25,-252 89.75,-252 89.75,-216 254.25,-216 254.25,-252"/>
<text text-anchor="middle" x="172" y="-230.3" font-family="Times,serif" font-size="14.00">DiscoverySNPCallerPlugin</text>
</g>
<!-- Discovery.topm -->
<g id="node18" class="node"><title>Discovery.topm</title>
<ellipse fill="none" stroke="black" cx="172" cy="-162" rx="67.3907" ry="18"/>
<text text-anchor="middle" x="172" y="-158.3" font-family="Times,serif" font-size="14.00">Discovery.topm</text>
</g>
<!-- DiscoverySNPCallerPlugin&#45;&gt;Discovery.topm -->
<g id="edge21" class="edge"><title>DiscoverySNPCallerPlugin&#45;&gt;Discovery.topm</title>
<path fill="none" stroke="black" d="M172,-215.697C172,-207.983 172,-198.712 172,-190.112"/>
<polygon fill="black" stroke="black" points="175.5,-190.104 172,-180.104 168.5,-190.104 175.5,-190.104"/>
</g>
<!-- ProductionSNPCallerPlugin -->
<g id="node8" class="node"><title>ProductionSNPCallerPlugin</title>
<polygon fill="#e5e5e5" stroke="#e5e5e5" points="256.25,-108 87.75,-108 87.75,-72 256.25,-72 256.25,-108"/>
<text text-anchor="middle" x="172" y="-86.3" font-family="Times,serif" font-size="14.00">ProductionSNPCallerPlugin</text>
</g>
<!-- Genotypes.h5 -->
<g id="node19" class="node"><title>Genotypes.h5</title>
<ellipse fill="none" stroke="black" cx="172" cy="-18" rx="59.1941" ry="18"/>
<text text-anchor="middle" x="172" y="-14.3" font-family="Times,serif" font-size="14.00">Genotypes.h5</text>
</g>
<!-- ProductionSNPCallerPlugin&#45;&gt;Genotypes.h5 -->
<g id="edge25" class="edge"><title>ProductionSNPCallerPlugin&#45;&gt;Genotypes.h5</title>
<path fill="none" stroke="black" d="M172,-71.6966C172,-63.9827 172,-54.7125 172,-46.1124"/>
<polygon fill="black" stroke="black" points="175.5,-46.1043 172,-36.1043 168.5,-46.1044 175.5,-46.1043"/>
</g>
<!-- FASTQ -->
<g id="node9" class="node"><title>FASTQ</title>
<ellipse fill="none" stroke="black" cx="46" cy="-1170" rx="38.0212" ry="18"/>
<text text-anchor="middle" x="46" y="-1166.3" font-family="Times,serif" font-size="14.00">FASTQ</text>
</g>
<!-- FASTQ&#45;&gt;FastqToTagCountPlugin -->
<g id="edge1" class="edge"><title>FASTQ&#45;&gt;FastqToTagCountPlugin</title>
<path fill="none" stroke="black" d="M71.534,-1156.32C91.5712,-1146.38 119.925,-1132.3 143.521,-1120.59"/>
<polygon fill="black" stroke="black" points="145.235,-1123.64 152.636,-1116.06 142.122,-1117.37 145.235,-1123.64"/>
</g>
<!-- FASTQ&#45;&gt;SeqToTBTHDF5Plugin -->
<g id="edge13" class="edge"><title>FASTQ&#45;&gt;SeqToTBTHDF5Plugin</title>
<path fill="none" stroke="black" d="M46,-1151.95C46,-1125.29 46,-1072.11 46,-1027 46,-1027 46,-1027 46,-665 46,-624.031 53.6639,-613.571 70,-576 73.9993,-566.802 79.4188,-557.329 84.7094,-548.982"/>
<polygon fill="black" stroke="black" points="87.7609,-550.711 90.3263,-540.432 81.9104,-546.868 87.7609,-550.711"/>
</g>
<!-- FASTQ&#45;&gt;ProductionSNPCallerPlugin -->
<g id="edge22" class="edge"><title>FASTQ&#45;&gt;ProductionSNPCallerPlugin</title>
<path fill="none" stroke="black" d="M36.9119,-1152.51C23.5061,-1126.61 0,-1074.42 0,-1027 0,-1027 0,-1027 0,-233 0,-173.158 62.6802,-133.818 112.364,-112.035"/>
<polygon fill="black" stroke="black" points="113.946,-115.166 121.788,-108.041 111.215,-108.721 113.946,-115.166"/>
</g>
<!-- KeyFile.txt -->
<g id="node10" class="node"><title>KeyFile.txt</title>
<ellipse fill="none" stroke="black" cx="187" cy="-1170" rx="50.5427" ry="18"/>
<text text-anchor="middle" x="187" y="-1166.3" font-family="Times,serif" font-size="14.00">KeyFile.txt</text>
</g>
<!-- KeyFile.txt&#45;&gt;FastqToTagCountPlugin -->
<g id="edge2" class="edge"><title>KeyFile.txt&#45;&gt;FastqToTagCountPlugin</title>
<path fill="none" stroke="black" d="M187,-1151.7C187,-1143.98 187,-1134.71 187,-1126.11"/>
<polygon fill="black" stroke="black" points="190.5,-1126.1 187,-1116.1 183.5,-1126.1 190.5,-1126.1"/>
</g>
<!-- KeyFile.txt&#45;&gt;SeqToTBTHDF5Plugin -->
<g id="edge14" class="edge"><title>KeyFile.txt&#45;&gt;SeqToTBTHDF5Plugin</title>
<path fill="none" stroke="black" d="M154.471,-1156.08C136.628,-1147.35 115.628,-1134.1 103,-1116 79.8582,-1082.83 84,-1067.45 84,-1027 84,-1027 84,-1027 84,-665 84,-624.86 91.5507,-578.897 97.1322,-550.405"/>
<polygon fill="black" stroke="black" points="100.606,-550.883 99.1551,-540.388 93.7446,-549.498 100.606,-550.883"/>
</g>
<!-- KeyFile.txt&#45;&gt;ProductionSNPCallerPlugin -->
<g id="edge23" class="edge"><title>KeyFile.txt&#45;&gt;ProductionSNPCallerPlugin</title>
<path fill="none" stroke="black" d="M227.404,-1159.1C284.521,-1142.4 382,-1102.8 382,-1027 382,-1027 382,-1027 382,-233 382,-168.38 312.921,-131.174 254.002,-111.192"/>
<polygon fill="black" stroke="black" points="254.863,-107.791 244.27,-108.013 252.689,-114.445 254.863,-107.791"/>
</g>
<!-- TagCounts/1&#45;&gt;MergeMultipleTagCountPlugin -->
<g id="edge5" class="edge"><title>TagCounts/1&#45;&gt;MergeMultipleTagCountPlugin</title>
<path fill="none" stroke="black" d="M179.377,-1008.05C184.895,-999.837 191.64,-989.791 197.771,-980.66"/>
<polygon fill="black" stroke="black" points="200.732,-982.529 203.401,-972.275 194.921,-978.626 200.732,-982.529"/>
</g>
<!-- TagCounts/1&#45;&gt;TagCounts/n -->
<g id="edge7" class="edge"><title>TagCounts/1&#45;&gt;TagCounts/n</title>
<path fill="none" stroke="black" stroke-dasharray="1,5" d="M223.605,-1026C229.902,-1026 236.198,-1026 242.495,-1026"/>
</g>
<!-- TagCounts/n&#45;&gt;MergeMultipleTagCountPlugin -->
<g id="edge6" class="edge"><title>TagCounts/n&#45;&gt;MergeMultipleTagCountPlugin</title>
<path fill="none" stroke="black" d="M278.75,-1008.76C268.166,-999.839 254.842,-988.601 243.114,-978.711"/>
<polygon fill="black" stroke="black" points="245.205,-975.895 235.304,-972.124 240.692,-981.247 245.205,-975.895"/>
</g>
<!-- TagCount&#45;&gt;UTagCountToTagPairPlugin -->
<g id="edge9" class="edge"><title>TagCount&#45;&gt;UTagCountToTagPairPlugin</title>
<path fill="none" stroke="black" d="M215,-863.697C215,-855.983 215,-846.712 215,-838.112"/>
<polygon fill="black" stroke="black" points="218.5,-838.104 215,-828.104 211.5,-838.104 218.5,-838.104"/>
</g>
<!-- TagPairs&#45;&gt;UTagPairToTOPMPlugin -->
<g id="edge11" class="edge"><title>TagPairs&#45;&gt;UTagPairToTOPMPlugin</title>
<path fill="none" stroke="black" d="M215,-719.697C215,-711.983 215,-702.712 215,-694.112"/>
<polygon fill="black" stroke="black" points="218.5,-694.104 215,-684.104 211.5,-694.104 218.5,-694.104"/>
</g>
<!-- Pairs.topm&#45;&gt;SeqToTBTHDF5Plugin -->
<g id="edge15" class="edge"><title>Pairs.topm&#45;&gt;SeqToTBTHDF5Plugin</title>
<path fill="none" stroke="black" d="M191.248,-578.155C176.046,-568.654 156.036,-556.148 138.914,-545.446"/>
<polygon fill="black" stroke="black" points="140.599,-542.372 130.264,-540.04 136.889,-548.308 140.599,-542.372"/>
</g>
<!-- Pairs.topm&#45;&gt;DiscoverySNPCallerPlugin -->
<g id="edge20" class="edge"><title>Pairs.topm&#45;&gt;DiscoverySNPCallerPlugin</title>
<path fill="none" stroke="black" d="M217.964,-576.012C222.335,-549.435 230,-496.366 230,-451 230,-451 230,-451 230,-377 230,-336.553 227.58,-324.893 211,-288 206.645,-278.309 200.307,-268.665 194.002,-260.312"/>
<polygon fill="black" stroke="black" points="196.727,-258.115 187.782,-252.436 191.233,-262.453 196.727,-258.115"/>
</g>
<!-- TagsByTaxa.h5&#45;&gt;ModifyTBTHDF5Plugin -->
<g id="edge17" class="edge"><title>TagsByTaxa.h5&#45;&gt;ModifyTBTHDF5Plugin</title>
<path fill="none" stroke="black" d="M107.73,-431.697C108.502,-423.983 109.429,-414.712 110.289,-406.112"/>
<polygon fill="black" stroke="black" points="113.777,-406.403 111.29,-396.104 106.812,-405.706 113.777,-406.403"/>
</g>
<!-- TagsByTaxa.pivot.h5&#45;&gt;DiscoverySNPCallerPlugin -->
<g id="edge19" class="edge"><title>TagsByTaxa.pivot.h5&#45;&gt;DiscoverySNPCallerPlugin</title>
<path fill="none" stroke="black" d="M128.798,-288.055C135.628,-279.668 144.008,-269.376 151.564,-260.096"/>
<polygon fill="black" stroke="black" points="154.333,-262.24 157.933,-252.275 148.905,-257.82 154.333,-262.24"/>
</g>
<!-- Discovery.topm&#45;&gt;ProductionSNPCallerPlugin -->
<g id="edge24" class="edge"><title>Discovery.topm&#45;&gt;ProductionSNPCallerPlugin</title>
<path fill="none" stroke="black" d="M172,-143.697C172,-135.983 172,-126.712 172,-118.112"/>
<polygon fill="black" stroke="black" points="175.5,-118.104 172,-108.104 168.5,-118.104 175.5,-118.104"/>
</g>
</g>
</svg>
