<?xml version="1.0" encoding="UTF-8" standalone="no"?>
<!DOCTYPE svg PUBLIC "-//W3C//DTD SVG 1.1//EN"
 "http://www.w3.org/Graphics/SVG/1.1/DTD/svg11.dtd">
<!-- Generated by graphviz version 2.34.0 (20141125.1709)
 -->
<!-- Title: gbs Pages: 1 -->
<svg width="384pt" height="1196pt"
 viewBox="0.00 0.00 384.00 1196.00" xmlns="http://www.w3.org/2000/svg" xmlns:xlink="http://www.w3.org/1999/xlink">
<g id="graph0" class="graph" transform="scale(1 1) rotate(0) translate(4 1192)">
<title>gbs</title>
<polygon fill="white" stroke="white" points="-4,4 -4,-1192 380,-1192 380,4 -4,4"/>
<!-- FastqToTagCountPlugin -->
<g id="node1" class="node"><title>FastqToTagCountPlugin</title>
<polygon fill="#e5e5e5" stroke="#e5e5e5" points="269,-1116 119,-1116 119,-1080 269,-1080 269,-1116"/>
<text text-anchor="middle" x="194" y="-1094.3" font-family="Times,serif" font-size="14.00">FastqToTagCountPlugin</text>
</g>
<!-- TagCount.1 -->
<g id="node11" class="node"><title>TagCount.1</title>
<ellipse fill="none" stroke="black" cx="295" cy="-1026" rx="52.4675" ry="18"/>
<text text-anchor="middle" x="295" y="-1022.3" font-family="Times,serif" font-size="14.00">TagCount.1</text>
</g>
<!-- FastqToTagCountPlugin&#45;&gt;TagCount.1 -->
<g id="edge3" class="edge"><title>FastqToTagCountPlugin&#45;&gt;TagCount.1</title>
<path fill="none" stroke="black" d="M218.707,-1079.88C232.474,-1070.33 249.737,-1058.37 264.358,-1048.24"/>
<polygon fill="black" stroke="black" points="266.39,-1051.09 272.615,-1042.51 262.402,-1045.33 266.39,-1051.09"/>
</g>
<!-- TagCount.n -->
<g id="node12" class="node"><title>TagCount.n</title>
<ellipse fill="none" stroke="black" cx="172" cy="-1026" rx="52.4675" ry="18"/>
<text text-anchor="middle" x="172" y="-1022.3" font-family="Times,serif" font-size="14.00">TagCount.n</text>
</g>
<!-- FastqToTagCountPlugin&#45;&gt;TagCount.n -->
<g id="edge4" class="edge"><title>FastqToTagCountPlugin&#45;&gt;TagCount.n</title>
<path fill="none" stroke="black" d="M188.562,-1079.7C186.111,-1071.9 183.16,-1062.51 180.432,-1053.83"/>
<polygon fill="black" stroke="black" points="183.713,-1052.59 177.376,-1044.1 177.035,-1054.69 183.713,-1052.59"/>
</g>
<!-- MergeMultipleTagCountPlugin -->
<g id="node2" class="node"><title>MergeMultipleTagCountPlugin</title>
<polygon fill="#e5e5e5" stroke="#e5e5e5" points="316.25,-972 127.75,-972 127.75,-936 316.25,-936 316.25,-972"/>
<text text-anchor="middle" x="222" y="-950.3" font-family="Times,serif" font-size="14.00">MergeMultipleTagCountPlugin</text>
</g>
<!-- TagCounts -->
<g id="node13" class="node"><title>TagCounts</title>
<ellipse fill="none" stroke="black" cx="222" cy="-882" rx="49.0941" ry="18"/>
<text text-anchor="middle" x="222" y="-878.3" font-family="Times,serif" font-size="14.00">TagCounts</text>
</g>
<!-- MergeMultipleTagCountPlugin&#45;&gt;TagCounts -->
<g id="edge7" class="edge"><title>MergeMultipleTagCountPlugin&#45;&gt;TagCounts</title>
<path fill="none" stroke="black" d="M222,-935.697C222,-927.983 222,-918.712 222,-910.112"/>
<polygon fill="black" stroke="black" points="225.5,-910.104 222,-900.104 218.5,-910.104 225.5,-910.104"/>
</g>
<!-- UTagCountToTagPairPlugin -->
<g id="node3" class="node"><title>UTagCountToTagPairPlugin</title>
<polygon fill="#e5e5e5" stroke="#e5e5e5" points="308.25,-828 135.75,-828 135.75,-792 308.25,-792 308.25,-828"/>
<text text-anchor="middle" x="222" y="-806.3" font-family="Times,serif" font-size="14.00">UTagCountToTagPairPlugin</text>
</g>
<!-- TagPairs -->
<g id="node14" class="node"><title>TagPairs</title>
<ellipse fill="none" stroke="black" cx="222" cy="-738" rx="42.3701" ry="18"/>
<text text-anchor="middle" x="222" y="-734.3" font-family="Times,serif" font-size="14.00">TagPairs</text>
</g>
<!-- UTagCountToTagPairPlugin&#45;&gt;TagPairs -->
<g id="edge9" class="edge"><title>UTagCountToTagPairPlugin&#45;&gt;TagPairs</title>
<path fill="none" stroke="black" d="M222,-791.697C222,-783.983 222,-774.712 222,-766.112"/>
<polygon fill="black" stroke="black" points="225.5,-766.104 222,-756.104 218.5,-766.104 225.5,-766.104"/>
</g>
<!-- UTagPairToTOPMPlugin -->
<g id="node4" class="node"><title>UTagPairToTOPMPlugin</title>
<polygon fill="#e5e5e5" stroke="#e5e5e5" points="301,-684 143,-684 143,-648 301,-648 301,-684"/>
<text text-anchor="middle" x="222" y="-662.3" font-family="Times,serif" font-size="14.00">UTagPairToTOPMPlugin</text>
</g>
<!-- Pairs.topm -->
<g id="node15" class="node"><title>Pairs.topm</title>
<ellipse fill="none" stroke="black" cx="222" cy="-594" rx="49.0941" ry="18"/>
<text text-anchor="middle" x="222" y="-590.3" font-family="Times,serif" font-size="14.00">Pairs.topm</text>
</g>
<!-- UTagPairToTOPMPlugin&#45;&gt;Pairs.topm -->
<g id="edge11" class="edge"><title>UTagPairToTOPMPlugin&#45;&gt;Pairs.topm</title>
<path fill="none" stroke="black" d="M222,-647.697C222,-639.983 222,-630.712 222,-622.112"/>
<polygon fill="black" stroke="black" points="225.5,-622.104 222,-612.104 218.5,-622.104 225.5,-622.104"/>
</g>
<!-- SeqToTBTHDF5Plugin -->
<g id="node5" class="node"><title>SeqToTBTHDF5Plugin</title>
<polygon fill="#e5e5e5" stroke="#e5e5e5" points="176,-540 30,-540 30,-504 176,-504 176,-540"/>
<text text-anchor="middle" x="103" y="-518.3" font-family="Times,serif" font-size="14.00">SeqToTBTHDF5Plugin</text>
</g>
<!-- TagsByTaxa.h5 -->
<g id="node16" class="node"><title>TagsByTaxa.h5</title>
<ellipse fill="none" stroke="black" cx="110" cy="-450" rx="66.4165" ry="18"/>
<text text-anchor="middle" x="110" y="-446.3" font-family="Times,serif" font-size="14.00">TagsByTaxa.h5</text>
</g>
<!-- SeqToTBTHDF5Plugin&#45;&gt;TagsByTaxa.h5 -->
<g id="edge15" class="edge"><title>SeqToTBTHDF5Plugin&#45;&gt;TagsByTaxa.h5</title>
<path fill="none" stroke="black" d="M104.73,-503.697C105.502,-495.983 106.429,-486.712 107.289,-478.112"/>
<polygon fill="black" stroke="black" points="110.777,-478.403 108.29,-468.104 103.812,-477.706 110.777,-478.403"/>
</g>
<!-- ModifyTBTHDF5Plugin -->
<g id="node6" class="node"><title>ModifyTBTHDF5Plugin</title>
<polygon fill="#e5e5e5" stroke="#e5e5e5" points="189,-396 37,-396 37,-360 189,-360 189,-396"/>
<text text-anchor="middle" x="113" y="-374.3" font-family="Times,serif" font-size="14.00">ModifyTBTHDF5Plugin</text>
</g>
<!-- TagsByTaxa.pivot.h5 -->
<g id="node17" class="node"><title>TagsByTaxa.pivot.h5</title>
<ellipse fill="none" stroke="black" cx="115" cy="-306" rx="87.1385" ry="18"/>
<text text-anchor="middle" x="115" y="-302.3" font-family="Times,serif" font-size="14.00">TagsByTaxa.pivot.h5</text>
</g>
<!-- ModifyTBTHDF5Plugin&#45;&gt;TagsByTaxa.pivot.h5 -->
<g id="edge17" class="edge"><title>ModifyTBTHDF5Plugin&#45;&gt;TagsByTaxa.pivot.h5</title>
<path fill="none" stroke="black" d="M113.494,-359.697C113.715,-351.983 113.98,-342.712 114.225,-334.112"/>
<polygon fill="black" stroke="black" points="117.724,-334.2 114.511,-324.104 110.727,-334 117.724,-334.2"/>
</g>
<!-- DiscoverySNPCallerPlugin -->
<g id="node7" class="node"><title>DiscoverySNPCallerPlugin</title>
<polygon fill="#e5e5e5" stroke="#e5e5e5" points="254.25,-252 89.75,-252 89.75,-216 254.25,-216 254.25,-252"/>
<text text-anchor="middle" x="172" y="-230.3" font-family="Times,serif" font-size="14.00">DiscoverySNPCallerPlugin</text>
</g>
<!-- Discovery.topm -->
<g id="node18" class="node"><title>Discovery.topm</title>
<ellipse fill="none" stroke="black" cx="172" cy="-162" rx="67.3907" ry="18"/>
<text text-anchor="middle" x="172" y="-158.3" font-family="Times,serif" font-size="14.00">Discovery.topm</text>
</g>
<!-- DiscoverySNPCallerPlugin&#45;&gt;Discovery.topm -->
<g id="edge20" class="edge"><title>DiscoverySNPCallerPlugin&#45;&gt;Discovery.topm</title>
<path fill="none" stroke="black" d="M172,-215.697C172,-207.983 172,-198.712 172,-190.112"/>
<polygon fill="black" stroke="black" points="175.5,-190.104 172,-180.104 168.5,-190.104 175.5,-190.104"/>
</g>
<!-- ProductionSNPCallerPlugin -->
<g id="node8" class="node"><title>ProductionSNPCallerPlugin</title>
<polygon fill="#e5e5e5" stroke="#e5e5e5" points="256.25,-108 87.75,-108 87.75,-72 256.25,-72 256.25,-108"/>
<text text-anchor="middle" x="172" y="-86.3" font-family="Times,serif" font-size="14.00">ProductionSNPCallerPlugin</text>
</g>
<!-- Genotypes.h5 -->
<g id="node19" class="node"><title>Genotypes.h5</title>
<ellipse fill="none" stroke="black" cx="172" cy="-18" rx="59.1941" ry="18"/>
<text text-anchor="middle" x="172" y="-14.3" font-family="Times,serif" font-size="14.00">Genotypes.h5</text>
</g>
<!-- ProductionSNPCallerPlugin&#45;&gt;Genotypes.h5 -->
<g id="edge24" class="edge"><title>ProductionSNPCallerPlugin&#45;&gt;Genotypes.h5</title>
<path fill="none" stroke="black" d="M172,-71.6966C172,-63.9827 172,-54.7125 172,-46.1124"/>
<polygon fill="black" stroke="black" points="175.5,-46.1043 172,-36.1043 168.5,-46.1044 175.5,-46.1043"/>
</g>
<!-- FASTQ -->
<g id="node9" class="node"><title>FASTQ</title>
<ellipse fill="none" stroke="black" cx="53" cy="-1170" rx="38.0212" ry="18"/>
<text text-anchor="middle" x="53" y="-1166.3" font-family="Times,serif" font-size="14.00">FASTQ</text>
</g>
<!-- FASTQ&#45;&gt;FastqToTagCountPlugin -->
<g id="edge1" class="edge"><title>FASTQ&#45;&gt;FastqToTagCountPlugin</title>
<path fill="none" stroke="black" d="M78.534,-1156.32C98.5712,-1146.38 126.925,-1132.3 150.521,-1120.59"/>
<polygon fill="black" stroke="black" points="152.235,-1123.64 159.636,-1116.06 149.122,-1117.37 152.235,-1123.64"/>
</g>
<!-- FASTQ&#45;&gt;SeqToTBTHDF5Plugin -->
<g id="edge12" class="edge"><title>FASTQ&#45;&gt;SeqToTBTHDF5Plugin</title>
<path fill="none" stroke="black" d="M53,-1151.95C53,-1125.29 53,-1072.11 53,-1027 53,-1027 53,-1027 53,-665 53,-622.683 73.0004,-577.092 87.7022,-549.296"/>
<polygon fill="black" stroke="black" points="90.9253,-550.697 92.64,-540.241 84.7796,-547.345 90.9253,-550.697"/>
</g>
<!-- FASTQ&#45;&gt;ProductionSNPCallerPlugin -->
<g id="edge21" class="edge"><title>FASTQ&#45;&gt;ProductionSNPCallerPlugin</title>
<path fill="none" stroke="black" d="M42.2747,-1152.27C26.7879,-1126.46 0,-1074.89 0,-1027 0,-1027 0,-1027 0,-233 0,-173.158 62.6802,-133.818 112.364,-112.035"/>
<polygon fill="black" stroke="black" points="113.946,-115.166 121.788,-108.041 111.215,-108.721 113.946,-115.166"/>
</g>
<!-- KeyFile.txt -->
<g id="node10" class="node"><title>KeyFile.txt</title>
<ellipse fill="none" stroke="black" cx="194" cy="-1170" rx="50.5427" ry="18"/>
<text text-anchor="middle" x="194" y="-1166.3" font-family="Times,serif" font-size="14.00">KeyFile.txt</text>
</g>
<!-- KeyFile.txt&#45;&gt;FastqToTagCountPlugin -->
<g id="edge2" class="edge"><title>KeyFile.txt&#45;&gt;FastqToTagCountPlugin</title>
<path fill="none" stroke="black" d="M194,-1151.7C194,-1143.98 194,-1134.71 194,-1126.11"/>
<polygon fill="black" stroke="black" points="197.5,-1126.1 194,-1116.1 190.5,-1126.1 197.5,-1126.1"/>
</g>
<!-- KeyFile.txt&#45;&gt;SeqToTBTHDF5Plugin -->
<g id="edge13" class="edge"><title>KeyFile.txt&#45;&gt;SeqToTBTHDF5Plugin</title>
<path fill="none" stroke="black" d="M161.471,-1156.08C143.628,-1147.35 122.628,-1134.1 110,-1116 86.8582,-1082.83 91,-1067.45 91,-1027 91,-1027 91,-1027 91,-665 91,-624.853 95.8214,-578.548 99.352,-550.022"/>
<polygon fill="black" stroke="black" points="102.836,-550.373 100.629,-540.01 95.8919,-549.487 102.836,-550.373"/>
</g>
<!-- KeyFile.txt&#45;&gt;ProductionSNPCallerPlugin -->
<g id="edge22" class="edge"><title>KeyFile.txt&#45;&gt;ProductionSNPCallerPlugin</title>
<path fill="none" stroke="black" d="M232.153,-1158.11C285.521,-1140.26 376,-1099.34 376,-1027 376,-1027 376,-1027 376,-233 376,-169.028 307.59,-131.528 250,-111.294"/>
<polygon fill="black" stroke="black" points="251.091,-107.968 240.497,-108.073 248.844,-114.598 251.091,-107.968"/>
</g>
<!-- TagCount.1&#45;&gt;MergeMultipleTagCountPlugin -->
<g id="edge5" class="edge"><title>TagCount.1&#45;&gt;MergeMultipleTagCountPlugin</title>
<path fill="none" stroke="black" d="M278.069,-1008.76C268.94,-1000.01 257.491,-989.033 247.324,-979.283"/>
<polygon fill="black" stroke="black" points="249.498,-976.519 239.858,-972.124 244.653,-981.571 249.498,-976.519"/>
</g>
<!-- TagCount.n&#45;&gt;MergeMultipleTagCountPlugin -->
<g id="edge6" class="edge"><title>TagCount.n&#45;&gt;MergeMultipleTagCountPlugin</title>
<path fill="none" stroke="black" d="M183.849,-1008.41C189.775,-1000.12 197.078,-989.891 203.703,-980.615"/>
<polygon fill="black" stroke="black" points="206.574,-982.618 209.538,-972.447 200.878,-978.55 206.574,-982.618"/>
</g>
<!-- TagCounts&#45;&gt;UTagCountToTagPairPlugin -->
<g id="edge8" class="edge"><title>TagCounts&#45;&gt;UTagCountToTagPairPlugin</title>
<path fill="none" stroke="black" d="M222,-863.697C222,-855.983 222,-846.712 222,-838.112"/>
<polygon fill="black" stroke="black" points="225.5,-838.104 222,-828.104 218.5,-838.104 225.5,-838.104"/>
</g>
<!-- TagPairs&#45;&gt;UTagPairToTOPMPlugin -->
<g id="edge10" class="edge"><title>TagPairs&#45;&gt;UTagPairToTOPMPlugin</title>
<path fill="none" stroke="black" d="M222,-719.697C222,-711.983 222,-702.712 222,-694.112"/>
<polygon fill="black" stroke="black" points="225.5,-694.104 222,-684.104 218.5,-694.104 225.5,-694.104"/>
</g>
<!-- Pairs.topm&#45;&gt;SeqToTBTHDF5Plugin -->
<g id="edge14" class="edge"><title>Pairs.topm&#45;&gt;SeqToTBTHDF5Plugin</title>
<path fill="none" stroke="black" d="M197.054,-578.326C180.771,-568.748 159.206,-556.062 140.833,-545.255"/>
<polygon fill="black" stroke="black" points="142.501,-542.175 132.107,-540.122 138.952,-548.209 142.501,-542.175"/>
</g>
<!-- Pairs.topm&#45;&gt;DiscoverySNPCallerPlugin -->
<g id="edge19" class="edge"><title>Pairs.topm&#45;&gt;DiscoverySNPCallerPlugin</title>
<path fill="none" stroke="black" d="M223.581,-575.968C225.912,-549.332 230,-496.186 230,-451 230,-451 230,-451 230,-377 230,-336.553 227.58,-324.893 211,-288 206.645,-278.309 200.307,-268.665 194.002,-260.312"/>
<polygon fill="black" stroke="black" points="196.727,-258.115 187.782,-252.436 191.233,-262.453 196.727,-258.115"/>
</g>
<!-- TagsByTaxa.h5&#45;&gt;ModifyTBTHDF5Plugin -->
<g id="edge16" class="edge"><title>TagsByTaxa.h5&#45;&gt;ModifyTBTHDF5Plugin</title>
<path fill="none" stroke="black" d="M110.742,-431.697C111.072,-423.983 111.469,-414.712 111.838,-406.112"/>
<polygon fill="black" stroke="black" points="115.335,-406.245 112.267,-396.104 108.342,-405.945 115.335,-406.245"/>
</g>
<!-- TagsByTaxa.pivot.h5&#45;&gt;DiscoverySNPCallerPlugin -->
<g id="edge18" class="edge"><title>TagsByTaxa.pivot.h5&#45;&gt;DiscoverySNPCallerPlugin</title>
<path fill="none" stroke="black" d="M128.798,-288.055C135.628,-279.668 144.008,-269.376 151.564,-260.096"/>
<polygon fill="black" stroke="black" points="154.333,-262.24 157.933,-252.275 148.905,-257.82 154.333,-262.24"/>
</g>
<!-- Discovery.topm&#45;&gt;ProductionSNPCallerPlugin -->
<g id="edge23" class="edge"><title>Discovery.topm&#45;&gt;ProductionSNPCallerPlugin</title>
<path fill="none" stroke="black" d="M172,-143.697C172,-135.983 172,-126.712 172,-118.112"/>
<polygon fill="black" stroke="black" points="175.5,-118.104 172,-108.104 168.5,-118.104 175.5,-118.104"/>
</g>
</g>
</svg>
